<?xml version="1.0" encoding="UTF-8" standalone="no"?>
<!-- Created with Inkscape (http://www.inkscape.org/) -->

<svg
   xmlns:dc="http://purl.org/dc/elements/1.1/"
   xmlns:cc="http://creativecommons.org/ns#"
   xmlns:rdf="http://www.w3.org/1999/02/22-rdf-syntax-ns#"
   xmlns:svg="http://www.w3.org/2000/svg"
   xmlns="http://www.w3.org/2000/svg"
   xmlns:sodipodi="http://sodipodi.sourceforge.net/DTD/sodipodi-0.dtd"
   xmlns:inkscape="http://www.inkscape.org/namespaces/inkscape"
   width="270.72513"
   height="149.91969"
   viewBox="0 0 71.629355 39.666253"
   version="1.1"
   id="svg8"
   inkscape:version="0.92.3 (2405546, 2018-03-11)"
   sodipodi:docname="KBR.svg">
  <defs
     id="defs2" />
  <sodipodi:namedview
     id="base"
     pagecolor="#00ffff"
     bordercolor="#666666"
     borderopacity="1.0"
     inkscape:pageopacity="0"
     inkscape:pageshadow="2"
     inkscape:zoom="0.98994949"
     inkscape:cx="660.13389"
     inkscape:cy="-79.796405"
     inkscape:document-units="px"
     inkscape:current-layer="layer1"
     showgrid="false"
     units="px"
     fit-margin-top="0.5"
     fit-margin-left="0.5"
     fit-margin-right="0.5"
     fit-margin-bottom="0.5"
     inkscape:window-width="1920"
     inkscape:window-height="1001"
     inkscape:window-x="-9"
     inkscape:window-y="-9"
     inkscape:window-maximized="1" />
  <metadata
     id="metadata5">
    <rdf:RDF>
      <cc:Work
         rdf:about="">
        <dc:format>image/svg+xml</dc:format>
        <dc:type
           rdf:resource="http://purl.org/dc/dcmitype/StillImage" />
        <dc:title></dc:title>
      </cc:Work>
    </rdf:RDF>
  </metadata>
  <g
     inkscape:label="Layer 1"
     inkscape:groupmode="layer"
     id="layer1"
     transform="translate(10.98315,-81.312978)">
    <switch
       id="switch98"
       transform="matrix(0.15152363,0,0,0.15152363,-10.853716,81.450796)">
	<foreignObject
   requiredExtensions="http://ns.adobe.com/AdobeIllustrator/10.0/"
   width="1"
   height="1"
   x="0"
   y="0">
	</foreignObject>

	<g
   id="g96">
		<ellipse
   id="ellipse60"
   ry="109.1"
   class="st0"
   rx="113"
   cx="-1522"
   cy="109"
   style="display:none;fill:none;stroke:#ed1c24;stroke-width:0.25;stroke-miterlimit:10" />

		<circle
   id="circle62"
   class="st1"
   r="109.7"
   cx="-1505.1"
   cy="108.5"
   style="display:none;fill:none;stroke:#27aae1;stroke-width:0.25;stroke-miterlimit:10" />

		<ellipse
   id="ellipse64"
   ry="109.7"
   class="st2"
   rx="98.800003"
   cx="-1517"
   cy="108.5"
   style="display:none;fill:none;stroke:#9b8579;stroke-width:0.25;stroke-miterlimit:10" />

		<rect
   id="rect66"
   width="26.1"
   class="st3"
   height="27.200001"
   x="153.2"
   y="73.699997"
   style="fill:#00783f" />

		<rect
   id="rect68"
   width="20.700001"
   height="20.700001"
   x="158.39999"
   y="26.799999" />

		<rect
   id="rect70"
   width="10.8"
   class="st4"
   height="10.8"
   x="193.3"
   y="35.400002"
   style="fill:#a2c7e2" />

		<rect
   id="rect72"
   width="6.6999998"
   height="6.6999998"
   x="212.5"
   y="38.400002" />

		<rect
   id="rect74"
   width="14.2"
   class="st5"
   height="14.2"
   x="211"
   y="51.299999"
   style="fill:#00205c" />

		<rect
   id="rect76"
   width="23.6"
   class="st4"
   height="23.6"
   x="197.89999"
   y="71.800003"
   style="fill:#a2c7e2" />

		<rect
   id="rect78"
   width="10.2"
   class="st3"
   height="10.2"
   x="186.7"
   y="53.5"
   style="fill:#00783f" />

		<rect
   id="rect80"
   width="8"
   class="st3"
   height="8"
   x="230"
   y="68.400002"
   style="fill:#00783f" />

		<rect
   id="rect82"
   width="7.5999999"
   class="st5"
   height="7.5999999"
   x="187.3"
   y="21"
   style="fill:#00205c" />

		<rect
   id="rect84"
   width="10.2"
   class="st4"
   height="10.2"
   x="167.8"
   y="56.799999"
   style="fill:#a2c7e2" />

		<path
   id="path86"
   d="M 165.1,208.4"
   class="st6"
   inkscape:connector-curvature="0"
   style="fill:#004987" />

		<path
   id="path88"
   d="m 174.2,168.3 c -9.7,1.4 -19.5,1 -30,1 -43.4,0 -82.1,-13.1 -99.7,-31.3 -8.6,-31.5 -2.4,-61 9.1,-81.6 -5.4,-2.7 -9.5,-5.9 -13.7,-9.1 -20.2,29.1 -24.2,62.2 -15.2,92.2 17,18.9 57.3,33.1 101.7,33.1 17.3,0.1 33.2,-0.8 47.8,-4.3 z m -117,-1.6 c -10.3,-2.5 -20.3,-9 -27.9,-14.7 18.7,40.9 59.8,66 100.5,66.1 3.4,0 8.7,0.2 11.9,-0.1 -31.3,-2.5 -64.2,-19.2 -84.5,-51.3 z M 99.8,64.9 c 33.9,5.3 65.2,0.6 65.2,0.6 -26.8,0.9 -47.6,-2 -63.4,-6.1 -0.5,1.3 -1.2,3.2 -1.8,5.5 z M 80.5,79.4 c -5.1,27.6 -3.6,55.7 4.6,72.4 -3.4,-17.9 -3.1,-41.6 1.4,-64.9 7,-36.5 27.5,-60.7 46.2,-72.5 -14.5,3 -33.1,18.5 -44.1,41 C 73.9,50.1 65.8,44.3 62.9,42 79.1,21 105.6,3.4 134.6,0 100.5,-0.9 65.2,14.9 43.8,42.5 c 12,9.7 26.7,15.8 41.7,19.5 -2.2,5.5 -3.9,11.3 -5,17.4 z m 148.2,73.3 c 0,0 -13.8,40.1 -55.1,58.4 0,0 50.5,-15.9 67.5,-69.6 0,-0.1 -7.3,7.5 -12.4,11.2 z"
   class="st6"
   inkscape:connector-curvature="0"
   style="fill:#004987" />

		<path
   id="path90"
   d="m 339,181.7 -0.1,-0.1 c 6.5,-7.7 9.3,-17.1 9.3,-25.9 v -0.4 c 0,-20.5 -14.7,-41.1 -47.5,-41.1 h -87.8 l -49.6,54.9 V 114.2 H 132.4 V 260 h 30.9 V 201.5 L 219.8,260 H 303 c 13.8,0 24.9,-2.7 33.8,-8.2 12.3,-7.7 19.4,-20.7 19.4,-35.6 v -0.5 c 0,-14 -6.1,-26.1 -17.2,-34 z m -152.5,1.4 61,-67.4 v 130.9 z m 138.2,33.1 c 0,13.1 -10.8,18.7 -28,18.7 H 278.1 V 139.5 H 296 c 14.4,0 22.3,5.7 22.3,15.9 v 0.4 c 0,11.5 -9.5,16.4 -24.5,16.4 H 286 v 25.4 h 13.2 c 16.4,0 25.5,6.6 25.5,18.1 z"
   class="st6"
   inkscape:connector-curvature="0"
   style="fill:#004987" />

		<path
   id="path92"
   d="m 471,260 -36.2,-68.2 c 16.3,-7.8 22.6,-22.7 22.6,-36.1 v -0.4 c 0,-20.5 -14.7,-41.1 -47.5,-41.1 H 356 V 260 h 30.8 V 139.4 h 18.6 c 14.4,0 22.3,5.7 22.3,15.9 v 0.4 c 0,11.5 -9.5,16.4 -24.5,16.4 h -8.5 v 25.4 h 10.9 L 439,260 Z"
   class="st6"
   inkscape:connector-curvature="0"
   style="fill:#004987" />

		<path
   id="path94"
   d="M 54.8,26 59.3,14.3 C 59.4,14 59,13.8 58.9,14.1 l -9.7,13 2,-10.9 C 51.3,15.8 50.7,15.6 50.5,16 l -5,10.1 V 9.7 C 45.5,9.4 45.1,9.4 45,9.6 L 40.7,25.2 38.6,14.4 C 38.5,14 37.9,14 37.9,14.4 l -1.1,11.3 -6,-15.4 C 30.7,10 30.3,10.1 30.3,10.4 L 31.9,26.5 26,17.1 C 25.8,16.7 25.2,17 25.3,17.4 l 3.1,11 -11.1,-12.3 c -0.2,-0.2 -0.5,0 -0.4,0.3 l 7.3,14.4 -8.8,-6.5 c -0.3,-0.3 -0.8,0.2 -0.5,0.5 l 6.9,9.1 -15,-7.4 C 6.5,26.4 6.3,26.7 6.5,26.9 L 18.4,37.6 8,34.7 C 7.6,34.6 7.3,35.1 7.7,35.4 l 9.7,6 L 0.9,40 c -0.3,0 -0.4,0.4 -0.1,0.5 l 15,5.7 -10.8,1 c -0.4,0 -0.5,0.7 0,0.7 l 11.2,2.1 -16,4.6 c -0.3,0.1 -0.2,0.5 0.1,0.5 l 16,-0.1 -9.7,4.9 c -0.4,0.2 -0.2,0.8 0.2,0.7 L 18,58.5 4.8,68.6 c -0.2,0.2 0,0.5 0.2,0.4 l 15,-5.9 -7.3,8.1 c -0.3,0.3 0.1,0.8 0.5,0.6 l 9.7,-6 -8.7,14.2 c -0.1,0.2 0.2,0.5 0.4,0.3 l 8.5,-7.8 C 30.4,50.4 44.9,34.7 54.8,26 Z"
   class="st7"
   inkscape:connector-curvature="0"
   style="clip-rule:evenodd;fill:#ffda00;fill-rule:evenodd" />

	</g>

</switch>
  </g>
  <style
     id="style58"
     type="text/css">
	.st0{display:none;fill:none;stroke:#ED1C24;stroke-width:0.25;stroke-miterlimit:10;}
	.st1{display:none;fill:none;stroke:#27AAE1;stroke-width:0.25;stroke-miterlimit:10;}
	.st2{display:none;fill:none;stroke:#9B8579;stroke-width:0.25;stroke-miterlimit:10;}
	.st3{fill:#00783F;}
	.st4{fill:#A2C7E2;}
	.st5{fill:#00205C;}
	.st6{fill:#004987;}
	.st7{fill-rule:evenodd;clip-rule:evenodd;fill:#FFDA00;}
</style>
</svg>
